<?xml version="1.0" standalone="no"?>
<!DOCTYPE svg PUBLIC "-//W3C//DTD SVG 20010904//EN"
 "http://www.w3.org/TR/2001/REC-SVG-20010904/DTD/svg10.dtd">
<svg version="1.0" xmlns="http://www.w3.org/2000/svg"
 width="200.000000pt" height="200.000000pt" viewBox="0 0 200.000000 200.000000"
 preserveAspectRatio="xMidYMid meet">

<g transform="translate(0.000000,200.000000) scale(0.100000,-0.100000)"
fill="#000000" stroke="none">
<path d="M597 1949 c-52 -27 -89 -88 -95 -152 -3 -46 1 -61 37 -129 39 -74 41
-82 41 -165 0 -126 16 -207 57 -295 l35 -76 -32 -47 c-18 -26 -49 -83 -69
-127 l-37 -80 -62 56 c-67 63 -117 148 -128 222 -7 52 4 70 55 91 133 56 190
207 126 333 -86 169 -330 170 -417 1 -61 -116 -21 -251 94 -319 31 -18 32 -22
47 -102 22 -128 93 -251 182 -320 24 -18 48 -37 52 -40 4 -4 -22 -3 -58 2
-100 14 -100 14 -100 -144 -1 -162 -15 -212 -80 -283 -44 -49 -55 -78 -35 -90
19 -12 45 6 80 53 l34 47 16 -65 c16 -65 30 -80 60 -60 13 8 12 17 -6 70 -12
33 -19 62 -17 64 3 2 23 -4 46 -15 52 -23 83 -24 91 -3 10 26 -11 42 -71 55
-30 7 -57 19 -60 26 -8 20 7 237 17 254 8 11 18 9 61 -12 l52 -25 24 -95 c15
-60 26 -138 30 -215 5 -115 5 -122 -16 -143 -11 -11 -32 -21 -45 -21 -14 0
-38 -12 -55 -26 -25 -21 -31 -34 -31 -64 0 -21 4 -41 8 -44 5 -3 32 2 61 11
48 14 59 14 114 -1 74 -18 92 -9 78 39 -9 31 9 268 21 280 4 4 33 -3 65 -15
46 -18 86 -24 190 -28 142 -5 226 6 301 38 23 11 42 18 43 17 9 -20 24 -270
18 -292 -14 -49 4 -57 78 -38 62 17 63 17 86 -5 25 -24 66 -29 85 -10 7 7 12
27 12 46 0 42 -46 92 -84 92 -14 0 -36 10 -47 21 -21 21 -21 28 -16 148 4 85
14 155 30 215 l24 90 51 25 c28 14 55 22 59 18 3 -4 13 -62 20 -129 15 -142
16 -140 -67 -160 -44 -11 -56 -19 -58 -36 -5 -33 22 -37 83 -14 30 12 55 18
55 14 0 -4 -9 -31 -21 -61 -18 -48 -18 -56 -5 -69 24 -24 43 -7 56 50 7 29 15
56 17 61 2 4 22 -15 44 -43 42 -54 62 -61 79 -30 9 16 3 28 -39 74 -71 78 -86
134 -84 298 3 148 4 146 -102 130 -33 -6 -61 -9 -63 -7 -2 1 13 12 32 24 51
32 131 123 160 184 22 45 38 97 60 198 3 14 34 55 70 91 68 70 86 108 86 186
0 119 -109 222 -238 222 -64 0 -106 -16 -157 -61 -50 -45 -75 -100 -75 -172 0
-96 28 -145 127 -218 80 -60 89 -130 30 -232 -25 -42 -118 -137 -135 -137 -5
0 -21 30 -36 68 -15 37 -45 94 -67 126 -38 56 -39 60 -23 83 46 71 67 155 73
298 6 138 7 142 40 193 59 93 61 175 4 250 -76 100 -241 95 -310 -10 -40 -59
-45 -158 -11 -208 13 -19 39 -44 58 -55 131 -78 156 -180 90 -358 -12 -31 -24
-57 -27 -57 -3 0 -30 16 -61 35 -138 84 -290 79 -422 -15 l-29 -21 -25 43
c-41 71 -59 141 -54 212 4 75 19 96 88 131 84 43 130 108 130 185 0 21 -5 51
-11 67 -14 38 -67 92 -106 109 -47 20 -131 17 -176 -7z m182 -48 c62 -44 82
-138 44 -204 -21 -37 -93 -77 -138 -77 -79 0 -145 70 -145 155 0 126 137 198
239 126z m610 1 c89 -65 93 -194 8 -254 -46 -33 -123 -36 -166 -6 -56 38 -76
73 -76 131 0 64 30 111 89 138 48 23 107 19 145 -9z m-996 -263 c69 -35 110
-101 110 -175 0 -105 -83 -188 -188 -188 -171 0 -254 210 -128 325 15 15 37
31 48 37 26 15 130 15 158 1z m1370 0 c69 -35 110 -101 110 -175 0 -190 -254
-260 -350 -97 -57 97 -22 214 82 271 26 15 130 15 158 1z m-829 -460 c95 -26
156 -132 134 -234 -20 -93 -128 -166 -220 -148 -131 25 -203 167 -143 283 20
39 69 80 111 95 48 17 68 18 118 4z m-7 -488 c55 -8 104 -7 194 4 133 15 162
11 181 -30 18 -40 -4 -97 -58 -144 -65 -57 -127 -76 -249 -76 -89 0 -107 4
-163 29 -72 33 -117 79 -132 135 -11 42 -1 84 22 95 15 7 102 1 205 -13z"/>
<path d="M700 1829 c-9 -15 -8 -24 1 -35 28 -33 80 -3 59 35 -14 27 -46 27
-60 0z"/>
<path d="M1240 1829 c-9 -15 -8 -24 1 -35 27 -33 79 1 58 39 -14 23 -46 21
-59 -4z"/>
<path d="M327 1543 c-15 -14 -7 -63 12 -73 39 -20 82 22 61 60 -10 20 -58 28
-73 13z"/>
<path d="M1601 1531 c-21 -39 20 -82 60 -61 15 9 19 19 17 43 -3 28 -7 32 -35
35 -23 2 -34 -2 -42 -17z"/>
<path d="M796 1081 c-38 -42 4 -81 43 -42 12 12 21 30 21 41 0 26 -41 27 -64
1z"/>
<path d="M726 664 c-16 -41 32 -122 85 -144 30 -13 33 -12 53 13 12 15 24 27
28 27 3 0 8 -18 12 -40 5 -35 9 -40 34 -40 22 0 30 7 43 38 l16 37 18 -37 c14
-28 25 -38 42 -38 24 0 27 4 38 54 l6 29 28 -27 c15 -14 32 -26 38 -26 5 0 28
13 51 30 48 34 74 98 52 125 -23 27 -40 18 -40 -22 l-1 -38 -29 33 c-43 47
-60 43 -60 -15 l-1 -48 -33 38 c-32 36 -35 37 -103 37 -64 0 -71 -2 -99 -31
l-29 -31 -5 39 c-7 51 -33 56 -71 11 l-28 -33 -1 38 c0 29 -4 37 -19 37 -10 0
-22 -7 -25 -16z"/>
</g>
</svg>
